HIERARCHY
ROOT Hips
{
	OFFSET 0.000000 83.214638 0.000000
	CHANNELS 6 Xposition Yposition Zposition Xrotation Yrotation Zrotation
	JOINT Pelvis
	{
		OFFSET 0.000000 0.000000 0.000000
		CHANNELS 3 Xrotation Yrotation Zrotation
		JOINT LeftUpLeg
		{
			OFFSET 8.479700 -4.795502 -0.379100
			CHANNELS 3 Xrotation Yrotation Zrotation
			JOINT LeftLeg
			{
				OFFSET 0.024144 -32.555107 0.112900
				CHANNELS 3 Xrotation Yrotation Zrotation
				JOINT LeftFoot
				{
					OFFSET -0.024144 -32.638630 -3.012600
					CHANNELS 3 Xrotation Yrotation Zrotation
					JOINT LeftToeBase
					{
						OFFSET 0.970200 -13.225400 11.864200
						CHANNELS 3 Xrotation Yrotation Zrotation
						End Site
						{
							OFFSET 0.000000 12.319262 0.000000
						}
					}
					JOINT LFootTongue
					{
						OFFSET 1.142400 -1.059800 6.665200
						CHANNELS 3 Xrotation Yrotation Zrotation
						End Site
						{
							OFFSET 0.000000 12.319262 0.000000
						}
					}
				}
				JOINT LeftPantLeg
				{
					OFFSET 0.918482 -16.533964 -2.284700
					CHANNELS 3 Xrotation Yrotation Zrotation
					End Site
					{
						OFFSET 0.350399 24.744368 0.000000
					}
				}
			}
		}
		JOINT RightUpLeg
		{
			OFFSET -8.479700 -4.795502 -0.379100
			CHANNELS 3 Xrotation Yrotation Zrotation
			JOINT RightLeg
			{
				OFFSET -0.023144 -32.555092 0.112900
				CHANNELS 3 Xrotation Yrotation Zrotation
				JOINT RightFoot
				{
					OFFSET 0.023144 -32.638641 -3.012700
					CHANNELS 3 Xrotation Yrotation Zrotation
					JOINT RightToeBase
					{
						OFFSET -0.970200 -13.225400 11.864200
						CHANNELS 3 Xrotation Yrotation Zrotation
						End Site
						{
							OFFSET 0.000000 12.319244 0.000000
						}
					}
					JOINT RFootTongue
					{
						OFFSET -1.142200 -1.059800 6.665200
						CHANNELS 3 Xrotation Yrotation Zrotation
						End Site
						{
							OFFSET 0.000000 12.319243 0.000000
						}
					}
				}
				JOINT RightPantLeg
				{
					OFFSET -0.919482 -16.533978 -2.284800
					CHANNELS 3 Xrotation Yrotation Zrotation
					End Site
					{
						OFFSET -0.350400 24.744419 0.000000
					}
				}
			}
		}
	}
	JOINT Spine
	{
		OFFSET 0.000000 7.722000 1.166200
		CHANNELS 3 Xrotation Yrotation Zrotation
		JOINT Spine1
		{
			OFFSET 0.000000 12.024101 0.248800
			CHANNELS 3 Xrotation Yrotation Zrotation
			JOINT Spine2
			{
				OFFSET 0.000000 11.502998 -0.491200
				CHANNELS 3 Xrotation Yrotation Zrotation
				JOINT Neck
				{
					OFFSET 0.000000 18.430702 -3.123100
					CHANNELS 3 Xrotation Yrotation Zrotation
					JOINT Head
					{
						OFFSET 0.000000 9.051102 1.034000
						CHANNELS 3 Xrotation Yrotation Zrotation
						JOINT HairB
						{
							OFFSET 0.208400 24.786102 24.822300
							CHANNELS 3 Xrotation Yrotation Zrotation
							End Site
							{
								OFFSET 0.000000 32.263779 0.000000
							}
						}
						JOINT HairA
						{
							OFFSET -7.081100 24.428299 23.196600
							CHANNELS 3 Xrotation Yrotation Zrotation
							End Site
							{
								OFFSET 0.000000 32.263779 0.000000
							}
						}
						JOINT Hat
						{
							OFFSET 16.728800 15.048294 -15.439601
							CHANNELS 3 Xrotation Yrotation Zrotation
							End Site
							{
								OFFSET 0.000000 32.263779 0.000000
							}
						}
					}
				}
				JOINT LeftShoulder
				{
					OFFSET 6.197800 13.665199 -4.064700
					CHANNELS 3 Xrotation Yrotation Zrotation
					JOINT LeftArm
					{
						OFFSET 7.778100 -0.187103 -1.709300
						CHANNELS 3 Xrotation Yrotation Zrotation
						JOINT LeftForeArm
						{
							OFFSET 22.049376 0.000000 0.000000
							CHANNELS 3 Xrotation Yrotation Zrotation
							JOINT LeftHand
							{
								OFFSET 23.009392 0.000000 0.000000
								CHANNELS 3 Xrotation Yrotation Zrotation
								JOINT LeftHandThumb1
								{
									OFFSET 3.507191 -2.063065 3.133727
									CHANNELS 3 Xrotation Yrotation Zrotation
									JOINT LeftHandThumb2
									{
										OFFSET 3.101337 -1.790558 1.790558
										CHANNELS 3 Xrotation Yrotation Zrotation
										JOINT LeftHandThumb3
										{
											OFFSET 3.058640 -1.765907 1.765906
											CHANNELS 3 Xrotation Yrotation Zrotation
											End Site
											{
												OFFSET -0.415260 3.926476 -0.049563
											}
										}
									}
								}
								JOINT LeftHandIndex1
								{
									OFFSET 11.334419 -0.901459 3.706815
									CHANNELS 3 Xrotation Yrotation Zrotation
									JOINT LeftHandIndex2
									{
										OFFSET 3.283112 0.000000 0.000000
										CHANNELS 3 Xrotation Yrotation Zrotation
										JOINT LeftHandIndex3
										{
											OFFSET 3.323853 0.000000 0.000000
											CHANNELS 3 Xrotation Yrotation Zrotation
											End Site
											{
												OFFSET -1.135597 3.097809 0.402452
											}
										}
									}
								}
								JOINT LeftHandMiddle1
								{
									OFFSET 11.335861 0.000000 0.000000
									CHANNELS 3 Xrotation Yrotation Zrotation
									JOINT LeftHandMiddle2
									{
										OFFSET 3.410492 0.000000 0.000000
										CHANNELS 3 Xrotation Yrotation Zrotation
										JOINT LeftHandMiddle3
										{
											OFFSET 3.312172 0.000000 0.000000
											CHANNELS 3 Xrotation Yrotation Zrotation
											End Site
											{
												OFFSET -1.150200 3.080154 0.400270
											}
										}
									}
								}
								JOINT LeftHandRing1
								{
									OFFSET 11.514786 -0.013176 -3.003090
									CHANNELS 3 Xrotation Yrotation Zrotation
									JOINT LeftHandRing2
									{
										OFFSET 3.053307 0.000000 0.000000
										CHANNELS 3 Xrotation Yrotation Zrotation
										JOINT LeftHandRing3
										{
											OFFSET 3.295807 0.000000 0.000000
											CHANNELS 3 Xrotation Yrotation Zrotation
											End Site
											{
												OFFSET -1.281006 3.013344 0.375733
											}
										}
									}
								}
								JOINT LeftHandPinky1
								{
									OFFSET 10.518692 -0.960396 -5.730441
									CHANNELS 3 Xrotation Yrotation Zrotation
									JOINT LeftHandPinky2
									{
										OFFSET 2.861649 0.000000 0.000000
										CHANNELS 3 Xrotation Yrotation Zrotation
										JOINT LeftHandPinky3
										{
											OFFSET 2.863380 0.000000 0.000000
											CHANNELS 3 Xrotation Yrotation Zrotation
											End Site
											{
												OFFSET -0.843597 2.711159 0.369971
											}
										}
									}
								}
							}
							JOINT LSleeve
							{
								OFFSET 6.676277 -0.344902 -1.011730
								CHANNELS 3 Xrotation Yrotation Zrotation
								End Site
								{
									OFFSET 0.000000 14.885353 0.000000
								}
							}
						}
					}
				}
				JOINT RightShoulder
				{
					OFFSET -6.197800 13.665199 -4.064700
					CHANNELS 3 Xrotation Yrotation Zrotation
					JOINT RightArm
					{
						OFFSET -7.778100 -0.187103 -1.709300
						CHANNELS 3 Xrotation Yrotation Zrotation
						JOINT RightForeArm
						{
							OFFSET -22.049376 0.000000 0.000000
							CHANNELS 3 Xrotation Yrotation Zrotation
							JOINT RightHand
							{
								OFFSET -23.009392 0.000000 0.000000
								CHANNELS 3 Xrotation Yrotation Zrotation
								JOINT RightHandThumb1
								{
									OFFSET -3.507191 -2.063065 3.133727
									CHANNELS 3 Xrotation Yrotation Zrotation
									JOINT RightHandThumb2
									{
										OFFSET -3.101337 -1.790558 1.790558
										CHANNELS 3 Xrotation Yrotation Zrotation
										JOINT RightHandThumb3
										{
											OFFSET -3.058640 -1.765907 1.765906
											CHANNELS 3 Xrotation Yrotation Zrotation
											End Site
											{
												OFFSET 0.415260 3.926476 -0.049563
											}
										}
									}
								}
								JOINT RightHandIndex1
								{
									OFFSET -11.334419 -0.901459 3.706815
									CHANNELS 3 Xrotation Yrotation Zrotation
									JOINT RightHandIndex2
									{
										OFFSET -3.283112 0.000000 0.000000
										CHANNELS 3 Xrotation Yrotation Zrotation
										JOINT RightHandIndex3
										{
											OFFSET -3.323853 0.000000 0.000000
											CHANNELS 3 Xrotation Yrotation Zrotation
											End Site
											{
												OFFSET 1.135597 3.097809 0.402452
											}
										}
									}
								}
								JOINT RightHandMiddle1
								{
									OFFSET -11.335861 0.000000 0.000000
									CHANNELS 3 Xrotation Yrotation Zrotation
									JOINT RightHandMiddle2
									{
										OFFSET -3.410492 0.000000 0.000000
										CHANNELS 3 Xrotation Yrotation Zrotation
										JOINT RightHandMiddle3
										{
											OFFSET -3.312172 0.000000 0.000000
											CHANNELS 3 Xrotation Yrotation Zrotation
											End Site
											{
												OFFSET 1.150200 3.080154 0.400270
											}
										}
									}
								}
								JOINT RightHandRing1
								{
									OFFSET -11.514786 -0.013176 -3.003090
									CHANNELS 3 Xrotation Yrotation Zrotation
									JOINT RightHandRing2
									{
										OFFSET -3.053307 0.000000 0.000000
										CHANNELS 3 Xrotation Yrotation Zrotation
										JOINT RightHandRing3
										{
											OFFSET -3.295807 0.000000 0.000000
											CHANNELS 3 Xrotation Yrotation Zrotation
											End Site
											{
												OFFSET 1.281006 3.013344 0.375733
											}
										}
									}
								}
								JOINT RightHandPinky1
								{
									OFFSET -10.518692 -0.960396 -5.730441
									CHANNELS 3 Xrotation Yrotation Zrotation
									JOINT RightHandPinky2
									{
										OFFSET -2.861649 0.000000 0.000000
										CHANNELS 3 Xrotation Yrotation Zrotation
										JOINT RightHandPinky3
										{
											OFFSET -2.863380 0.000000 0.000000
											CHANNELS 3 Xrotation Yrotation Zrotation
											End Site
											{
												OFFSET 0.843597 2.711159 0.369971
											}
										}
									}
								}
							}
							JOINT RSleeve
							{
								OFFSET -6.676277 -0.344902 -1.011730
								CHANNELS 3 Xrotation Yrotation Zrotation
								End Site
								{
									OFFSET 0.000000 14.885353 0.000000
								}
							}
						}
					}
				}
				JOINT Backpack
				{
					OFFSET 0.000000 -2.471497 36.677502
					CHANNELS 3 Xrotation Yrotation Zrotation
					End Site
					{
						OFFSET 0.000000 20.427315 0.000000
					}
				}
				JOINT Hood
				{
					OFFSET 0.000000 18.754097 -10.431000
					CHANNELS 3 Xrotation Yrotation Zrotation
					JOINT Hood1
					{
						OFFSET 0.000000 -5.011002 -7.685901
						CHANNELS 3 Xrotation Yrotation Zrotation
						End Site
						{
							OFFSET 0.000000 9.175140 0.000000
						}
					}
				}
				JOINT LHoodieString
				{
					OFFSET 5.250500 16.397697 3.089900
					CHANNELS 3 Xrotation Yrotation Zrotation
					JOINT LHoodieString1
					{
						OFFSET 0.257700 -6.364304 3.694600
						CHANNELS 3 Xrotation Yrotation Zrotation
						JOINT LHoodieString2
						{
							OFFSET 0.000000 -9.643799 2.679100
							CHANNELS 3 Xrotation Yrotation Zrotation
							End Site
							{
								OFFSET 0.000000 10.009018 0.000000
							}
						}
					}
				}
				JOINT RHoodieString
				{
					OFFSET -5.250500 16.397697 3.089900
					CHANNELS 3 Xrotation Yrotation Zrotation
					JOINT RHoodieString1
					{
						OFFSET -0.257700 -6.364304 3.694600
						CHANNELS 3 Xrotation Yrotation Zrotation
						JOINT RHoodieString2
						{
							OFFSET 0.000000 -9.643799 2.679100
							CHANNELS 3 Xrotation Yrotation Zrotation
							End Site
							{
								OFFSET 0.000000 10.009018 0.000000
							}
						}
					}
				}
			}
			JOINT LBackpack_Strap
			{
				OFFSET 15.223200 -7.719803 -6.610900
				CHANNELS 3 Xrotation Yrotation Zrotation
				End Site
				{
					OFFSET 0.000000 16.040596 0.000000
				}
			}
			JOINT RBackpack_Strap
			{
				OFFSET -15.223000 -7.719803 -6.610900
				CHANNELS 3 Xrotation Yrotation Zrotation
				End Site
				{
					OFFSET 0.000000 16.040596 0.000000
				}
			}
		}
	}
	JOINT BoyFacialAnim_Joint
	{
		OFFSET 1.000000 -82.208099 -1.550900
		CHANNELS 3 Xrotation Yrotation Zrotation
		End Site
		{
			OFFSET 0.000000 30.012791 0.000000
		}
	}
}
MOTION
Frames: 5
Frame Time: 0.016667
-3.784701 77.090698 13.280065 -3.719983 -9.805122 -1.163406 -0.000000 0.000000 0.000000 -28.904237 -3.400373 1.918971 42.280322 -3.190948 -2.437173 -9.826112 -6.265747 0.023141 0.000000 -0.000002 -0.000000 0.000000 -0.000002 0.000000 0.000000 0.000000 -0.000000 -21.378758 3.606772 -0.736346 45.311082 9.744438 -3.735294 -20.708215 3.956488 0.514411 0.000000 -0.000001 -0.000000 0.000000 -0.000001 -0.000000 0.000001 0.000000 0.000000 5.734663 1.067720 -0.473154 4.739111 -0.064816 0.012273 10.292014 26.036294 -3.377461 3.202045 7.206162 0.255006 3.577877 59.991648 -6.564260 0.000000 0.000000 0.000000 0.000000 0.000000 0.000000 0.000000 0.000000 0.000000 8.936041 -24.743274 -2.968063 -31.852840 14.094147 -57.493636 -91.088666 12.819887 -86.878565 -27.577456 -4.331855 -2.991465 0.699123 9.503387 -2.418119 5.975207 12.647539 1.348335 -0.000001 -0.000001 -0.000001 9.479717 -1.289776 -20.785565 0.709481 2.796423 -28.467086 -0.000001 -0.000002 -0.000002 10.058168 -1.800579 -20.644710 1.774272 4.200487 -45.782058 -0.000000 -0.000000 -0.000005 1.254223 -0.073708 -17.945774 3.754092 5.463637 -68.965301 0.000001 0.000000 0.000001 -7.938247 1.609105 -6.495664 2.210564 4.583651 -51.475154 -0.000001 -0.000002 -0.000001 -0.000000 0.000001 -0.000000 10.514884 19.496053 -2.041466 -4.648015 40.347789 49.038969 77.661840 115.432656 -92.279353 -10.082952 20.006801 14.104941 13.942503 -4.273687 -5.300352 7.113166 -20.767439 -2.619503 -0.000001 0.000000 0.000001 0.357762 -5.832698 5.175841 0.094360 -0.933667 11.539899 -0.000000 0.000002 0.000002 3.764071 -12.080466 1.143782 5.714283 -4.535869 103.133562 -0.000001 -0.000000 0.000003 -12.155584 -12.623929 9.228358 6.566858 -4.248475 114.232339 -0.000002 -0.000001 0.000000 -17.635757 -10.496877 3.325423 4.993654 -4.645052 94.147935 0.000000 0.000002 0.000002 0.000000 0.000000 -0.000002 0.000002 0.000000 0.000000 0.000002 0.000000 0.000000 0.000002 0.000000 0.000000 0.000002 0.000000 0.000000 0.000002 0.000000 -0.000000 0.000000 0.000000 -0.000000 0.000002 0.000000 0.000000 0.000002 0.000000 -0.000000 0.000000 0.000000 -0.000000 0.000000 -0.000000 0.000000 0.000000 -0.000000 0.000000 -0.000000 0.000000 0.000000 
-4.459039 77.300667 13.252044 -3.620489 -8.348225 -1.052502 0.000000 0.000001 0.000000 -28.563503 -4.400060 1.875212 41.164061 -3.866740 -2.336186 -9.262741 -6.115873 -0.487336 -0.000000 0.000000 -0.000000 -0.000000 0.000000 0.000000 -0.000001 0.000000 0.000000 -20.871899 2.736461 -0.831148 44.497296 9.147071 -3.148558 -20.376116 4.101082 0.114644 0.000000 0.000000 -0.000000 0.000000 0.000000 -0.000000 0.000003 -0.000000 0.000000 5.733416 1.094512 -0.502537 4.739295 -0.071922 0.012347 10.288214 26.012982 -3.374274 3.194704 7.149667 0.254700 3.360324 59.445985 -6.494795 -0.000001 0.000000 -0.000001 -0.000001 0.000000 -0.000001 -0.000001 0.000000 -0.000001 8.936004 -24.743265 -2.968074 -31.749646 14.370493 -57.487844 -91.150186 12.780072 -87.127969 -27.586012 -4.098579 -2.879885 0.699123 9.503387 -2.418116 5.975208 12.647538 1.348335 0.000000 0.000000 0.000000 9.479717 -1.289777 -20.785565 0.709480 2.796419 -28.467084 -0.000001 -0.000003 -0.000002 10.058170 -1.800576 -20.644711 1.774271 4.200489 -45.782065 0.000000 -0.000000 0.000004 1.254224 -0.073706 -17.945774 3.754090 5.463639 -68.965308 0.000001 0.000001 -0.000000 -7.938249 1.609105 -6.495664 2.210563 4.583652 -51.475154 0.000002 0.000000 0.000001 0.000001 0.000000 -0.000000 10.514949 19.487734 -2.039803 -4.646384 40.614685 49.167472 77.464857 115.453734 -92.137353 -9.777807 20.005569 13.914329 13.942503 -4.273684 -5.300351 7.113166 -20.767439 -2.619502 0.000000 0.000000 -0.000001 0.357762 -5.832693 5.175842 0.094361 -0.933664 11.539899 -0.000000 0.000001 -0.000002 3.764071 -12.080462 1.143778 5.714284 -4.535868 103.133562 -0.000000 0.000000 0.000002 -12.155586 -12.623928 9.228360 6.566857 -4.248474 114.232332 -0.000001 -0.000001 0.000000 -17.635753 -10.496876 3.325422 4.993652 -4.645052 94.147935 -0.000001 -0.000001 0.000000 0.000000 -0.000000 0.000002 0.000001 -0.000001 -0.000000 0.000001 -0.000001 -0.000000 0.000001 -0.000001 -0.000000 0.000001 -0.000001 -0.000000 0.000001 -0.000001 -0.000000 0.000001 -0.000001 -0.000000 0.000001 -0.000001 -0.000000 0.000001 -0.000001 -0.000000 0.000001 -0.000001 -0.000000 -0.000000 0.000001 -0.000000 -0.000000 0.000001 -0.000000 0.000000 0.000001 0.000000 
-5.115905 77.495216 13.184218 -3.525542 -6.792336 -0.930605 0.000000 -0.000000 0.000000 -28.286482 -5.380509 1.802221 39.996922 -4.832230 -2.250285 -8.604895 -5.774403 -0.928295 -0.000000 0.000000 0.000000 -0.000000 0.000000 0.000000 -0.000002 0.000001 -0.000000 -20.383147 1.824322 -0.899322 43.783715 8.426828 -2.638819 -20.132532 4.240670 -0.391938 0.000000 -0.000000 0.000000 0.000000 -0.000000 0.000000 -0.000002 0.000000 0.000000 5.726636 1.117267 -0.530909 4.738549 -0.077030 0.013274 10.277603 25.957784 -3.363605 3.181538 7.089879 0.250240 3.168567 58.869148 -6.463701 0.000001 -0.000000 -0.000001 0.000001 -0.000000 -0.000001 0.000001 -0.000000 -0.000001 8.936029 -24.743206 -2.968080 -31.626474 14.382073 -57.607878 -91.448713 12.659211 -87.264935 -27.549389 -3.888653 -2.758374 0.699126 9.503388 -2.418117 5.975207 12.647540 1.348336 -0.000001 -0.000001 -0.000000 9.479719 -1.289775 -20.785565 0.709481 2.796415 -28.467086 0.000000 0.000002 -0.000001 10.058170 -1.800578 -20.644711 1.774272 4.200487 -45.782058 0.000001 0.000001 0.000002 1.254226 -0.073704 -17.945774 3.754091 5.463639 -68.965308 0.000000 -0.000001 -0.000000 -7.938249 1.609105 -6.495666 2.210561 4.583648 -51.475157 0.000001 -0.000000 0.000001 -0.000000 0.000001 -0.000000 10.515029 19.480678 -2.038387 -4.644162 40.827452 49.316531 77.224304 115.480139 -92.086222 -9.525338 19.966340 13.905988 13.942504 -4.273687 -5.300351 7.113163 -20.767438 -2.619502 0.000000 0.000000 -0.000003 0.357762 -5.832697 5.175844 0.094359 -0.933667 11.539900 0.000001 0.000000 -0.000000 3.764072 -12.080463 1.143783 5.714283 -4.535868 103.133562 0.000000 0.000000 -0.000002 -12.155588 -12.623930 9.228363 6.566859 -4.248473 114.232339 -0.000002 -0.000002 0.000002 -17.635755 -10.496881 3.325426 4.993652 -4.645054 94.147935 0.000001 0.000000 0.000002 -0.000000 -0.000000 -0.000000 0.000002 -0.000000 -0.000000 0.000002 -0.000000 -0.000000 0.000002 -0.000000 -0.000000 0.000002 -0.000000 -0.000000 0.000002 -0.000000 -0.000000 -0.000000 -0.000000 0.000000 0.000002 -0.000000 -0.000000 0.000002 -0.000000 -0.000000 -0.000000 -0.000000 0.000000 0.000001 -0.000000 0.000000 0.000001 -0.000000 0.000000 0.000000 -0.000000 0.000000 
-5.726439 77.656593 13.053404 -3.434840 -5.098860 -0.804256 -0.000000 0.000000 0.000000 -28.141167 -6.133074 1.848572 39.048823 -3.475899 -2.169438 -7.945849 -6.382408 -1.824324 -0.000000 -0.000002 0.000000 -0.000000 -0.000002 0.000000 -0.000000 -0.000000 0.000000 -19.985251 0.879477 -0.951582 43.226618 7.532310 -2.232629 -19.973625 4.363795 -0.905835 -0.000000 -0.000000 0.000000 -0.000000 -0.000000 0.000000 -0.000002 0.000000 0.000000 5.712120 1.137930 -0.553729 4.738978 -0.070926 0.012768 10.249793 25.856280 -3.366810 3.164827 7.027058 0.241470 2.845021 57.878743 -6.391075 0.000000 0.000000 0.000000 0.000000 0.000000 0.000000 0.000000 0.000000 0.000000 8.936056 -24.743253 -2.968072 -31.289404 14.458619 -57.880293 -91.904369 12.475342 -87.595475 -27.473753 -3.547106 -2.576791 0.699125 9.503387 -2.418116 5.975205 12.647539 1.348335 -0.000001 0.000001 -0.000001 9.479718 -1.289775 -20.785563 0.709480 2.796422 -28.467084 0.000001 -0.000003 -0.000002 10.058170 -1.800577 -20.644711 1.774272 4.200486 -45.782061 -0.000002 0.000001 0.000000 1.254224 -0.073703 -17.945774 3.754094 5.463637 -68.965301 -0.000002 0.000000 -0.000000 -7.938250 1.609105 -6.495662 2.210566 4.583655 -51.475154 -0.000000 -0.000001 -0.000000 0.000000 0.000001 0.000000 10.514845 19.501172 -2.042494 -4.444134 41.110748 49.507509 76.555677 115.556050 -91.692571 -9.035375 19.920038 13.815839 13.942504 -4.273689 -5.300348 7.113164 -20.767438 -2.619505 -0.000000 -0.000000 0.000000 0.357762 -5.832700 5.175842 0.094360 -0.933668 11.539897 -0.000001 -0.000001 0.000003 3.764071 -12.080465 1.143782 5.714284 -4.535868 103.133562 0.000000 0.000001 -0.000002 -12.155586 -12.623930 9.228360 6.566859 -4.248473 114.232332 -0.000001 -0.000003 -0.000002 -17.635758 -10.496881 3.325426 4.993651 -4.645050 94.147935 0.000001 -0.000003 0.000001 -0.000001 0.000000 -0.000002 0.000002 0.000002 -0.000000 0.000002 0.000002 -0.000000 0.000002 0.000002 -0.000000 0.000002 0.000002 -0.000000 0.000002 0.000002 -0.000000 0.000001 0.000002 -0.000000 0.000002 0.000002 -0.000000 0.000002 0.000002 -0.000000 0.000001 0.000002 -0.000000 -0.000000 0.000000 -0.000000 -0.000000 0.000000 -0.000000 -0.000000 0.000000 0.000000 
-6.289320 77.793716 12.879993 -3.349817 -3.340606 -0.679086 -0.000000 0.000000 0.000000 -28.221727 -6.672433 2.085454 38.691434 -1.237147 -2.091671 -7.437494 -7.085543 -3.237485 0.000000 0.000001 0.000000 0.000000 0.000001 0.000000 -0.000001 -0.000000 0.000000 -19.645615 -0.090960 -1.001662 42.725227 6.651809 -1.895172 -19.824940 4.449626 -1.310691 0.000000 -0.000000 0.000000 0.000000 -0.000000 0.000000 0.000000 0.000000 0.000000 5.691288 1.147735 -0.569237 4.741278 -0.063565 0.011808 10.218567 25.720431 -3.366813 3.145544 6.961894 0.230085 2.520926 56.815918 -6.334002 -0.000000 -0.000000 -0.000001 -0.000000 -0.000000 -0.000001 -0.000000 -0.000000 -0.000001 8.936024 -24.743306 -2.968072 -30.898307 14.479560 -58.234992 -92.469314 12.257750 -87.943733 -27.369297 -3.186887 -2.376238 0.699125 9.503386 -2.418117 5.975210 12.647541 1.348335 0.000000 -0.000000 0.000000 9.479719 -1.289776 -20.785565 0.709479 2.796424 -28.467084 0.000000 -0.000003 0.000001 10.058171 -1.800578 -20.644711 1.774272 4.200487 -45.782068 -0.000001 -0.000001 0.000002 1.254225 -0.073707 -17.945774 3.754093 5.463635 -68.965301 -0.000002 -0.000001 -0.000000 -7.938246 1.609107 -6.495665 2.210563 4.583652 -51.475154 0.000002 -0.000004 0.000001 0.000001 0.000000 -0.000000 10.515777 19.488642 -2.040139 -4.203958 41.444738 49.690282 75.831328 115.641987 -91.307533 -8.536983 19.865993 13.775102 13.942504 -4.273687 -5.300354 7.113166 -20.767438 -2.619502 -0.000000 -0.000001 -0.000002 0.357762 -5.832698 5.175841 0.094360 -0.933669 11.539903 -0.000001 -0.000000 0.000000 3.764071 -12.080463 1.143780 5.714284 -4.535868 103.133562 -0.000000 -0.000000 -0.000000 -12.155584 -12.623927 9.228359 6.566858 -4.248475 114.232332 -0.000001 0.000001 0.000001 -17.635757 -10.496877 3.325423 4.993649 -4.645050 94.147935 0.000002 0.000001 0.000000 -0.000000 -0.000000 0.000000 -0.000000 0.000001 -0.000000 -0.000000 0.000001 -0.000000 -0.000000 0.000001 -0.000000 -0.000000 0.000001 -0.000000 -0.000000 0.000001 -0.000001 -0.000000 0.000001 -0.000000 -0.000000 0.000001 -0.000000 -0.000000 0.000001 -0.000001 -0.000000 0.000001 -0.000000 -0.000000 0.000000 -0.000000 -0.000000 0.000000 -0.000000 -0.000000 0.000000 0.000000 
